<?xml version="1.0" encoding="UTF-8"?>
<svg xmlns="http://www.w3.org/2000/svg" xmlns:xlink="http://www.w3.org/1999/xlink" width="241.277" height="191.444" viewBox="0 0 241.277 191.444">
<path fill="none" stroke-width="0.19925" stroke-linecap="butt" stroke-linejoin="miter" stroke="rgb(50%, 50%, 50%)" stroke-opacity="1" stroke-miterlimit="10" d="M -16.189125 -13.44875 L -16.189125 -9.19875 M 16.189781 -13.44875 L 16.189781 -9.19875 M 48.568688 -13.44875 L 48.568688 -9.19875 M 80.9515 -13.44875 L 80.9515 -9.19875 M 113.330406 -13.44875 L 113.330406 -9.19875 M 145.709313 -13.44875 L 145.709313 -9.19875 M 178.092125 -13.44875 L 178.092125 -9.19875 M -16.189125 147.945781 L -16.189125 143.695781 M 16.189781 147.945781 L 16.189781 143.695781 M 48.568688 147.945781 L 48.568688 143.695781 M 80.9515 147.945781 L 80.9515 143.695781 M 113.330406 147.945781 L 113.330406 143.695781 M 145.709313 147.945781 L 145.709313 143.695781 M 178.092125 147.945781 L 178.092125 143.695781 " transform="matrix(1, 0, 0, -1, 56.361, 148.145)"/>
<path fill="none" stroke-width="0.19925" stroke-linecap="butt" stroke-linejoin="miter" stroke="rgb(50%, 50%, 50%)" stroke-opacity="1" stroke-miterlimit="10" d="M -16.189125 27.762187 L -11.939125 27.762187 M -16.189125 72.234844 L -11.939125 72.234844 M -16.189125 116.7075 L -11.939125 116.7075 M 178.088219 27.762187 L 173.838219 27.762187 M 178.088219 72.234844 L 173.838219 72.234844 M 178.088219 116.7075 L 173.838219 116.7075 " transform="matrix(1, 0, 0, -1, 56.361, 148.145)"/>
<path fill="none" stroke-width="0.3985" stroke-linecap="butt" stroke-linejoin="miter" stroke="rgb(0%, 0%, 0%)" stroke-opacity="1" stroke-miterlimit="10" d="M -16.189125 -13.44875 L -16.189125 147.945781 L 178.088219 147.945781 L 178.088219 -13.44875 Z M -16.189125 -13.44875 " transform="matrix(1, 0, 0, -1, 56.361, 148.145)"/>
<path fill="none" stroke-width="0.3985" stroke-linecap="butt" stroke-linejoin="miter" stroke="rgb(0%, 0%, 100%)" stroke-opacity="1" stroke-miterlimit="10" d="M -0.001625 134.496562 L 6.744469 114.887187 L 13.490563 96.820781 L 20.236656 80.297344 L 26.98275 65.320781 L 33.728844 51.883281 L 40.474938 39.996562 L 47.221031 29.648906 L 53.967125 20.848125 L 60.713219 13.590312 L 67.459313 7.875469 L 74.2015 3.7075 L 80.947594 1.0825 L 87.693688 0.00046875 L 94.439781 0.461406 L 101.185875 2.469219 L 107.931969 6.02 L 114.678063 11.117656 L 121.424156 17.754375 L 128.17025 25.937969 L 134.916344 35.668437 L 141.662438 46.937969 L 148.408531 59.754375 L 155.154625 74.11375 L 161.896813 90.02 " transform="matrix(1, 0, 0, -1, 56.361, 148.145)"/>
<path fill="none" stroke-width="0.3985" stroke-linecap="butt" stroke-linejoin="miter" stroke="rgb(0%, 0%, 100%)" stroke-opacity="1" stroke-miterlimit="10" d="M 1.994469 134.496562 C 1.994469 135.598125 1.099938 136.48875 -0.001625 136.48875 C -1.099281 136.48875 -1.993812 135.598125 -1.993812 134.496562 C -1.993812 133.395 -1.099281 132.504375 -0.001625 132.504375 C 1.099938 132.504375 1.994469 133.395 1.994469 134.496562 Z M 1.994469 134.496562 " transform="matrix(1, 0, 0, -1, 56.361, 148.145)"/>
<path fill="none" stroke-width="0.3985" stroke-linecap="butt" stroke-linejoin="miter" stroke="rgb(0%, 0%, 100%)" stroke-opacity="1" stroke-miterlimit="10" d="M 8.736656 114.887187 C 8.736656 115.984844 7.846031 116.879375 6.744469 116.879375 C 5.646813 116.879375 4.752281 115.984844 4.752281 114.887187 C 4.752281 113.785625 5.646813 112.895 6.744469 112.895 C 7.846031 112.895 8.736656 113.785625 8.736656 114.887187 Z M 8.736656 114.887187 " transform="matrix(1, 0, 0, -1, 56.361, 148.145)"/>
<path fill="none" stroke-width="0.3985" stroke-linecap="butt" stroke-linejoin="miter" stroke="rgb(0%, 0%, 100%)" stroke-opacity="1" stroke-miterlimit="10" d="M 15.48275 96.820781 C 15.48275 97.918437 14.592125 98.812969 13.490563 98.812969 C 12.392906 98.812969 11.498375 97.918437 11.498375 96.820781 C 11.498375 95.719219 12.392906 94.828594 13.490563 94.828594 C 14.592125 94.828594 15.48275 95.719219 15.48275 96.820781 Z M 15.48275 96.820781 " transform="matrix(1, 0, 0, -1, 56.361, 148.145)"/>
<path fill="none" stroke-width="0.3985" stroke-linecap="butt" stroke-linejoin="miter" stroke="rgb(0%, 0%, 100%)" stroke-opacity="1" stroke-miterlimit="10" d="M 22.228844 80.297344 C 22.228844 81.398906 21.338219 82.289531 20.236656 82.289531 C 19.135094 82.289531 18.244469 81.398906 18.244469 80.297344 C 18.244469 79.195781 19.135094 78.305156 20.236656 78.305156 C 21.338219 78.305156 22.228844 79.195781 22.228844 80.297344 Z M 22.228844 80.297344 " transform="matrix(1, 0, 0, -1, 56.361, 148.145)"/>
<path fill="none" stroke-width="0.3985" stroke-linecap="butt" stroke-linejoin="miter" stroke="rgb(0%, 0%, 100%)" stroke-opacity="1" stroke-miterlimit="10" d="M 28.974938 65.320781 C 28.974938 66.418437 28.084313 67.312969 26.98275 67.312969 C 25.881188 67.312969 24.990563 66.418437 24.990563 65.320781 C 24.990563 64.219219 25.881188 63.324687 26.98275 63.324687 C 28.084313 63.324687 28.974938 64.219219 28.974938 65.320781 Z M 28.974938 65.320781 " transform="matrix(1, 0, 0, -1, 56.361, 148.145)"/>
<path fill="none" stroke-width="0.3985" stroke-linecap="butt" stroke-linejoin="miter" stroke="rgb(0%, 0%, 100%)" stroke-opacity="1" stroke-miterlimit="10" d="M 35.721031 51.883281 C 35.721031 52.984844 34.830406 53.875469 33.728844 53.875469 C 32.627281 53.875469 31.736656 52.984844 31.736656 51.883281 C 31.736656 50.785625 32.627281 49.891094 33.728844 49.891094 C 34.830406 49.891094 35.721031 50.785625 35.721031 51.883281 Z M 35.721031 51.883281 " transform="matrix(1, 0, 0, -1, 56.361, 148.145)"/>
<path fill="none" stroke-width="0.3985" stroke-linecap="butt" stroke-linejoin="miter" stroke="rgb(0%, 0%, 100%)" stroke-opacity="1" stroke-miterlimit="10" d="M 42.467125 39.996562 C 42.467125 41.094219 41.5765 41.98875 40.474938 41.98875 C 39.373375 41.98875 38.48275 41.094219 38.48275 39.996562 C 38.48275 38.895 39.373375 38.000469 40.474938 38.000469 C 41.5765 38.000469 42.467125 38.895 42.467125 39.996562 Z M 42.467125 39.996562 " transform="matrix(1, 0, 0, -1, 56.361, 148.145)"/>
<path fill="none" stroke-width="0.3985" stroke-linecap="butt" stroke-linejoin="miter" stroke="rgb(0%, 0%, 100%)" stroke-opacity="1" stroke-miterlimit="10" d="M 49.213219 29.648906 C 49.213219 30.750469 48.322594 31.641094 47.221031 31.641094 C 46.119469 31.641094 45.228844 30.750469 45.228844 29.648906 C 45.228844 28.547344 46.119469 27.656719 47.221031 27.656719 C 48.322594 27.656719 49.213219 28.547344 49.213219 29.648906 Z M 49.213219 29.648906 " transform="matrix(1, 0, 0, -1, 56.361, 148.145)"/>
<path fill="none" stroke-width="0.3985" stroke-linecap="butt" stroke-linejoin="miter" stroke="rgb(0%, 0%, 100%)" stroke-opacity="1" stroke-miterlimit="10" d="M 55.959313 20.848125 C 55.959313 21.945781 55.064781 22.840312 53.967125 22.840312 C 52.865563 22.840312 51.974938 21.945781 51.974938 20.848125 C 51.974938 19.746562 52.865563 18.855937 53.967125 18.855937 C 55.064781 18.855937 55.959313 19.746562 55.959313 20.848125 Z M 55.959313 20.848125 " transform="matrix(1, 0, 0, -1, 56.361, 148.145)"/>
<path fill="none" stroke-width="0.3985" stroke-linecap="butt" stroke-linejoin="miter" stroke="rgb(0%, 0%, 100%)" stroke-opacity="1" stroke-miterlimit="10" d="M 62.705406 13.590312 C 62.705406 14.691875 61.810875 15.5825 60.713219 15.5825 C 59.611656 15.5825 58.721031 14.691875 58.721031 13.590312 C 58.721031 12.48875 59.611656 11.598125 60.713219 11.598125 C 61.810875 11.598125 62.705406 12.48875 62.705406 13.590312 Z M 62.705406 13.590312 " transform="matrix(1, 0, 0, -1, 56.361, 148.145)"/>
<path fill="none" stroke-width="0.3985" stroke-linecap="butt" stroke-linejoin="miter" stroke="rgb(0%, 0%, 100%)" stroke-opacity="1" stroke-miterlimit="10" d="M 69.4515 7.875469 C 69.4515 8.977031 68.556969 9.867656 67.459313 9.867656 C 66.35775 9.867656 65.463219 8.977031 65.463219 7.875469 C 65.463219 6.773906 66.35775 5.883281 67.459313 5.883281 C 68.556969 5.883281 69.4515 6.773906 69.4515 7.875469 Z M 69.4515 7.875469 " transform="matrix(1, 0, 0, -1, 56.361, 148.145)"/>
<path fill="none" stroke-width="0.3985" stroke-linecap="butt" stroke-linejoin="miter" stroke="rgb(0%, 0%, 100%)" stroke-opacity="1" stroke-miterlimit="10" d="M 76.197594 3.7075 C 76.197594 4.805156 75.303063 5.699687 74.2015 5.699687 C 73.103844 5.699687 72.209313 4.805156 72.209313 3.7075 C 72.209313 2.605937 73.103844 1.715312 74.2015 1.715312 C 75.303063 1.715312 76.197594 2.605937 76.197594 3.7075 Z M 76.197594 3.7075 " transform="matrix(1, 0, 0, -1, 56.361, 148.145)"/>
<path fill="none" stroke-width="0.3985" stroke-linecap="butt" stroke-linejoin="miter" stroke="rgb(0%, 0%, 100%)" stroke-opacity="1" stroke-miterlimit="10" d="M 82.943688 1.0825 C 82.943688 2.180156 82.049156 3.074687 80.947594 3.074687 C 79.849938 3.074687 78.955406 2.180156 78.955406 1.0825 C 78.955406 -0.0190625 79.849938 -0.909688 80.947594 -0.909688 C 82.049156 -0.909688 82.943688 -0.0190625 82.943688 1.0825 Z M 82.943688 1.0825 " transform="matrix(1, 0, 0, -1, 56.361, 148.145)"/>
<path fill="none" stroke-width="0.3985" stroke-linecap="butt" stroke-linejoin="miter" stroke="rgb(0%, 0%, 100%)" stroke-opacity="1" stroke-miterlimit="10" d="M 89.685875 0.00046875 C 89.685875 1.102031 88.79525 1.992656 87.693688 1.992656 C 86.596031 1.992656 85.7015 1.102031 85.7015 0.00046875 C 85.7015 -1.101094 86.596031 -1.991719 87.693688 -1.991719 C 88.79525 -1.991719 89.685875 -1.101094 89.685875 0.00046875 Z M 89.685875 0.00046875 " transform="matrix(1, 0, 0, -1, 56.361, 148.145)"/>
<path fill="none" stroke-width="0.3985" stroke-linecap="butt" stroke-linejoin="miter" stroke="rgb(0%, 0%, 100%)" stroke-opacity="1" stroke-miterlimit="10" d="M 96.431969 0.461406 C 96.431969 1.562969 95.541344 2.453594 94.439781 2.453594 C 93.342125 2.453594 92.447594 1.562969 92.447594 0.461406 C 92.447594 -0.63625 93.342125 -1.530781 94.439781 -1.530781 C 95.541344 -1.530781 96.431969 -0.63625 96.431969 0.461406 Z M 96.431969 0.461406 " transform="matrix(1, 0, 0, -1, 56.361, 148.145)"/>
<path fill="none" stroke-width="0.3985" stroke-linecap="butt" stroke-linejoin="miter" stroke="rgb(0%, 0%, 100%)" stroke-opacity="1" stroke-miterlimit="10" d="M 103.178063 2.469219 C 103.178063 3.570781 102.287438 4.461406 101.185875 4.461406 C 100.084313 4.461406 99.193688 3.570781 99.193688 2.469219 C 99.193688 1.367656 100.084313 0.477031 101.185875 0.477031 C 102.287438 0.477031 103.178063 1.367656 103.178063 2.469219 Z M 103.178063 2.469219 " transform="matrix(1, 0, 0, -1, 56.361, 148.145)"/>
<path fill="none" stroke-width="0.3985" stroke-linecap="butt" stroke-linejoin="miter" stroke="rgb(0%, 0%, 100%)" stroke-opacity="1" stroke-miterlimit="10" d="M 109.924156 6.02 C 109.924156 7.121562 109.033531 8.012187 107.931969 8.012187 C 106.830406 8.012187 105.939781 7.121562 105.939781 6.02 C 105.939781 4.922344 106.830406 4.027812 107.931969 4.027812 C 109.033531 4.027812 109.924156 4.922344 109.924156 6.02 Z M 109.924156 6.02 " transform="matrix(1, 0, 0, -1, 56.361, 148.145)"/>
<path fill="none" stroke-width="0.3985" stroke-linecap="butt" stroke-linejoin="miter" stroke="rgb(0%, 0%, 100%)" stroke-opacity="1" stroke-miterlimit="10" d="M 116.67025 11.117656 C 116.67025 12.215312 115.779625 13.109844 114.678063 13.109844 C 113.5765 13.109844 112.685875 12.215312 112.685875 11.117656 C 112.685875 10.016094 113.5765 9.125469 114.678063 9.125469 C 115.779625 9.125469 116.67025 10.016094 116.67025 11.117656 Z M 116.67025 11.117656 " transform="matrix(1, 0, 0, -1, 56.361, 148.145)"/>
<path fill="none" stroke-width="0.3985" stroke-linecap="butt" stroke-linejoin="miter" stroke="rgb(0%, 0%, 100%)" stroke-opacity="1" stroke-miterlimit="10" d="M 123.416344 17.754375 C 123.416344 18.855937 122.525719 19.746562 121.424156 19.746562 C 120.322594 19.746562 119.431969 18.855937 119.431969 17.754375 C 119.431969 16.656719 120.322594 15.762187 121.424156 15.762187 C 122.525719 15.762187 123.416344 16.656719 123.416344 17.754375 Z M 123.416344 17.754375 " transform="matrix(1, 0, 0, -1, 56.361, 148.145)"/>
<path fill="none" stroke-width="0.3985" stroke-linecap="butt" stroke-linejoin="miter" stroke="rgb(0%, 0%, 100%)" stroke-opacity="1" stroke-miterlimit="10" d="M 130.162438 25.937969 C 130.162438 27.039531 129.271813 27.930156 128.17025 27.930156 C 127.068688 27.930156 126.178063 27.039531 126.178063 25.937969 C 126.178063 24.840312 127.068688 23.945781 128.17025 23.945781 C 129.271813 23.945781 130.162438 24.840312 130.162438 25.937969 Z M 130.162438 25.937969 " transform="matrix(1, 0, 0, -1, 56.361, 148.145)"/>
<path fill="none" stroke-width="0.3985" stroke-linecap="butt" stroke-linejoin="miter" stroke="rgb(0%, 0%, 100%)" stroke-opacity="1" stroke-miterlimit="10" d="M 136.908531 35.668437 C 136.908531 36.766094 136.014 37.660625 134.916344 37.660625 C 133.814781 37.660625 132.924156 36.766094 132.924156 35.668437 C 132.924156 34.566875 133.814781 33.672344 134.916344 33.672344 C 136.014 33.672344 136.908531 34.566875 136.908531 35.668437 Z M 136.908531 35.668437 " transform="matrix(1, 0, 0, -1, 56.361, 148.145)"/>
<path fill="none" stroke-width="0.3985" stroke-linecap="butt" stroke-linejoin="miter" stroke="rgb(0%, 0%, 100%)" stroke-opacity="1" stroke-miterlimit="10" d="M 143.654625 46.937969 C 143.654625 48.039531 142.760094 48.930156 141.662438 48.930156 C 140.560875 48.930156 139.67025 48.039531 139.67025 46.937969 C 139.67025 45.836406 140.560875 44.945781 141.662438 44.945781 C 142.760094 44.945781 143.654625 45.836406 143.654625 46.937969 Z M 143.654625 46.937969 " transform="matrix(1, 0, 0, -1, 56.361, 148.145)"/>
<path fill="none" stroke-width="0.3985" stroke-linecap="butt" stroke-linejoin="miter" stroke="rgb(0%, 0%, 100%)" stroke-opacity="1" stroke-miterlimit="10" d="M 150.400719 59.754375 C 150.400719 60.855937 149.506188 61.746562 148.408531 61.746562 C 147.306969 61.746562 146.412438 60.855937 146.412438 59.754375 C 146.412438 58.652812 147.306969 57.762187 148.408531 57.762187 C 149.506188 57.762187 150.400719 58.652812 150.400719 59.754375 Z M 150.400719 59.754375 " transform="matrix(1, 0, 0, -1, 56.361, 148.145)"/>
<path fill="none" stroke-width="0.3985" stroke-linecap="butt" stroke-linejoin="miter" stroke="rgb(0%, 0%, 100%)" stroke-opacity="1" stroke-miterlimit="10" d="M 157.146813 74.11375 C 157.146813 75.215312 156.252281 76.105937 155.154625 76.105937 C 154.053063 76.105937 153.158531 75.215312 153.158531 74.11375 C 153.158531 73.012187 154.053063 72.121562 155.154625 72.121562 C 156.252281 72.121562 157.146813 73.012187 157.146813 74.11375 Z M 157.146813 74.11375 " transform="matrix(1, 0, 0, -1, 56.361, 148.145)"/>
<path fill="none" stroke-width="0.3985" stroke-linecap="butt" stroke-linejoin="miter" stroke="rgb(0%, 0%, 100%)" stroke-opacity="1" stroke-miterlimit="10" d="M 163.892906 90.02 C 163.892906 91.117656 162.998375 92.012187 161.896813 92.012187 C 160.799156 92.012187 159.904625 91.117656 159.904625 90.02 C 159.904625 88.918437 160.799156 88.023906 161.896813 88.023906 C 162.998375 88.023906 163.892906 88.918437 163.892906 90.02 Z M 163.892906 90.02 " transform="matrix(1, 0, 0, -1, 56.361, 148.145)"/>
</svg>
